<svg xmlns="http://www.w3.org/2000/svg" viewBox="0 0 512 512"><style type="text/css">  
	.st0{fill:#444444;}
	.st1{fill:#333333;}
	.st2{fill:#FFFFFF;}
</style><path class="st0" d="M512 432c0 44.2-35.8 80-80 80H80c-44.2 0-80-35.8-80-80V80C0 35.8 35.8 0 80 0h352c44.2 0 80 35.8 80 80V432z"/><path class="st1" d="M512 432V265.8L352.8 106.6l-46.9 46.9 -12.8-12.8L164 269.7l52.2 52.2 -20 20 -50.7-50.7 -3.1-1.8 -3.2 0.1 -4 4 36.1 36.1 -4.2 4.2 48.1 48.1 -14.7 14.7L315.9 512H432C476.2 512 512 476.2 512 432z"/><path class="st2" d="M147.8 243.4c-0.5 0 5.2 12.1 5.4 12.1 12.4 22.2 36.4 36 76.9 39.8 -5.8 4.3-12.7 12.5-13.7 21.9 -7.3 4.6-21.9 6.1-33.2 2.6 -15.9-4.9-22-35.9-45.8-31.5 -5.2 0.9-4.1 4.3 0.3 7.1 7.3 4.6 14.1 10.4 19.4 22.7 4.1 9.4 12.6 26.3 39.5 26.3 10.7 0 18.2-1.3 18.2-1.3s0.2 24.1 0.2 33.5c0 10.8-14.8 13.9-14.8 19.1 0 2.1 4.9 2.3 8.9 2.3 7.8 0 24-6.4 24-17.6 0-8.9 0.1-38.9 0.1-44.2 0-11.5 6.3-15.1 6.3-15.1s0.8 61.2-1.5 69.5c-2.7 9.6-7.5 8.3-7.5 12.6 0 6.4 19.5 1.6 26-12.5 5-10.9 2.8-71 2.8-71l5.3-0.1c0 0 0.3 27.5 0.1 40.1 -0.2 13-1.1 29.5 6.8 37.3 5.2 5.1 21.9 14.1 21.9 5.9 0-4.8-9.2-8.7-9.2-21.5v-59.3c7.3 0 6.2 19.5 6.2 19.5l0.5 36.2c0 0-1.6 13.2 14.5 18.7 5.7 2 17.9 2.5 18.4-0.8 0.6-3.3-14.7-8.2-14.8-18.4 -0.1-6.2 0.3-9.9 0.3-36.9 0-27.1-3.7-37.1-16.6-45.1 39.8-4 64.4-13.7 76.4-39.6 0.9 0 4.9-12.1 4.4-12.1 2.7-9.8 4.2-21.3 4.4-35 -0.1-37.2-18.2-50.3-21.6-56.5 5.1-28.1-0.9-40.9-3.6-45.3 -10.3-3.6-35.7 9.2-49.5 18.2 -22.6-6.5-70.5-5.9-88.4 1.7 -33.1-23.3-50.6-19.7-50.6-19.7s-11.3 19.9-3 49.1c-10.9 13.6-19 23.3-19 48.9C142.2 219.2 144 232.1 147.8 243.4z"/></svg>