<svg xmlns="http://www.w3.org/2000/svg" viewBox="0 0 1792 1792"><style type="text/css">  
	.st0{fill:#444444;}
</style><path class="st0" d="M276.5 1500.3H546V690.7H276.5V1500.3zM563.5 441c-0.8-40.5-14.8-73.8-42-100.3C494.3 314.2 458.2 301 413 301s-81.9 13.2-110.3 39.7c-28.3 26.5-42.6 59.9-42.6 100.3 0 39.7 13.8 72.9 41.4 99.8 27.6 26.8 63.6 40.3 107.9 40.3h1.2c45.9 0 82.8-13.4 110.8-40.3S563.5 480.7 563.5 441zM1246 1500.3h269.5V1036c0-119.8-28.4-210.3-85.2-271.8 -56.8-61.5-131.8-92.2-225.2-92.2 -105.8 0-187 45.5-243.8 136.5h2.3V690.7H694.2c2.3 51.3 2.3 321.2 0 809.7h269.5v-452.7c0-29.5 2.7-51.3 8.2-65.3 11.7-27.2 29.2-50.4 52.5-69.4 23.3-19 52.1-28.6 86.3-28.6 90.2 0 135.3 61 135.3 183.2V1500.3zM1792 336v1120c0 92.5-32.9 171.7-98.6 237.4 -65.7 65.7-144.9 98.6-237.4 98.6H336c-92.5 0-171.7-32.9-237.4-98.6C32.9 1627.7 0 1548.5 0 1456V336c0-92.5 32.9-171.7 98.6-237.4S243.5 0 336 0h1120c92.5 0 171.7 32.9 237.4 98.6C1759.1 164.3 1792 243.5 1792 336z"/></svg>