<svg xmlns="http://www.w3.org/2000/svg" viewBox="0 0 512 512"><style type="text/css">  
	.st0{fill:#444444;}
	.st1{fill:#FFFFFF;}
</style><path class="st0" d="M64 0h384c35.3 0 64 28.7 64 64v384c0 35.3-28.7 64-64 64H64c-35.3 0-64-28.7-64-64V64C0 28.7 28.7 0 64 0z"/><g transform="matrix(1.5807476 0 0 1.5807476 -1689.8384 -519.69899)"><rect x="1162.9" y="562.1" class="st1" width="99.9" height="21.3"/><rect x="1300.6" y="365.3" transform="matrix(0.9853 -0.171 0.171 0.9853 -51.6906 230.3363)" class="st1" width="21.3" height="99.9"/><polygon class="st1" points="1165.8 525.6 1265.2 534.8 1263.3 556 1163.8 546.8 "/><rect x="1210.1" y="454.3" transform="matrix(0.2596 -0.9657 0.9657 0.2596 416.9112 1552.2819)" class="st1" width="21.3" height="99.9"/><polygon class="st1" points="1198.4 431.8 1284.4 482.5 1273.6 500.9 1187.5 450.1 "/><polygon class="st1" points="1249.2 385 1305.5 467.6 1287.9 479.6 1231.6 397 "/><polygon class="st1" points="1131.9 616.9 1136.9 616.9 1296.6 616.9 1296.6 617.2 1296.6 612.3 1296.6 512.9 1279.6 512.9 1279.6 600.9 1148.6 600.9 1148.6 512.9 1131.6 512.9 1131.6 616.9 "/></g></svg>